<svg xmlns="http://www.w3.org/2000/svg" width="24" height="24" viewBox="0 0 24 24" fill="none" stroke="currentColor" stroke-width="2" stroke-linecap="round" stroke-linejoin="round">
  <path d="M6 9H4.5a2.5 2.5 0 0 1 0-5H6"/><path d="M18 9h1.5a2.5 2.5 0 0 0 0-5H18"/><path d="M4 22h16"/><path d="M10 14.66V17c0 .55.47.98.97 1.21C12.23 18.72 13.77 18.72 15 18.21c.5-.23.97-.66.97-1.21v-2.34"/><path d="M12 2C9.24 2 7 4.24 7 7c0 2.42 1.72 4.44 4 4.9V14h2v-2.1c2.28-.46 4-2.48 4-4.9 0-2.76-2.24-5-5-5z"/>
</svg>
